<svg width="37" height="30" viewBox="0 0 37 30" fill="none" xmlns="http://www.w3.org/2000/svg">
<path d="M14.3452 20.6797C14.3452 22.3125 13.505 24.9844 11.5162 24.9844C9.5275 24.9844 8.68729 22.3125 8.68729 20.6797C8.68729 19.0469 9.5275 16.375 11.5162 16.375C13.505 16.375 14.3452 19.0469 14.3452 20.6797ZM37 16.7344C37 19.2266 36.7533 21.8672 35.651 24.1562C32.7296 30.1406 24.6975 30 18.9471 30C13.1042 30 4.59417 30.2109 1.55708 24.1562C0.431667 21.8906 0 19.2266 0 16.7344C0 13.4609 1.07146 10.3672 3.19896 7.85938C2.79813 6.625 2.60542 5.32812 2.60542 4.04687C2.60542 2.36719 2.98313 1.52344 3.73083 0C7.22271 0 9.45813 0.703125 12.1175 2.8125C14.3529 2.27344 16.65 2.03125 18.9548 2.03125C21.036 2.03125 23.1327 2.25781 25.1523 2.75C27.7731 0.664062 30.0085 0 33.4619 0C34.2173 1.52344 34.5873 2.36719 34.5873 4.04687C34.5873 5.32812 34.3869 6.60156 33.9938 7.8125C36.1135 10.3437 37 13.4609 37 16.7344ZM32.0435 20.6797C32.0435 17.25 29.9854 14.2266 26.3779 14.2266C24.921 14.2266 23.5258 14.4922 22.0613 14.6953C20.9127 14.875 19.7642 14.9453 18.5848 14.9453C17.4131 14.9453 16.2646 14.875 15.1083 14.6953C13.6669 14.4922 12.2563 14.2266 10.7917 14.2266C7.18417 14.2266 5.12604 17.25 5.12604 20.6797C5.12604 27.5391 11.3235 28.5937 16.7194 28.5937H20.4348C25.8538 28.5937 32.0435 27.5469 32.0435 20.6797ZM25.6765 16.375C23.6877 16.375 22.8475 19.0469 22.8475 20.6797C22.8475 22.3125 23.6877 24.9844 25.6765 24.9844C27.6652 24.9844 28.5054 22.3125 28.5054 20.6797C28.5054 19.0469 27.6652 16.375 25.6765 16.375Z" fill="#F3F3F3"/>
</svg>
